<svg xmlns="http://www.w3.org/2000/svg" viewBox="0 0 750 500"><g id="freepik--background-complete--inject-77"><path d="M560,207.9c.4-2.93-3.74-5.35-6.86-5.6-1.48-.12-3,.11-4.43-.38-3-1.07-4.27-5-7.25-6.26-2.22-.94-4.78-.1-6.94,1s-4.28,2.45-6.69,2.61c-2.1.13-4.37-.64-6.2.38-1.37.76-2.09,2.34-3.34,3.26a8,8,0,0,1-4.37,1.19,12.36,12.36,0,0,0-4.5.73,3.56,3.56,0,0,0-2.26,3.62Z" style="fill:#f5f5f5"></path><path d="M424.49,177.74c.4-2.93-3.74-5.35-6.85-5.6-1.49-.12-3,.11-4.44-.38-3.05-1.07-4.27-5-7.24-6.26-2.22-.94-4.78-.1-6.94,1s-4.29,2.45-6.7,2.61c-2.09.13-4.37-.65-6.2.38-1.37.76-2.08,2.33-3.34,3.26a8,8,0,0,1-4.37,1.19,12.18,12.18,0,0,0-4.5.73,3.56,3.56,0,0,0-2.25,3.61Z" style="fill:#f5f5f5"></path><path d="M160.25,43.51c.46-3.35-4.26-6.1-7.8-6.38-1.69-.14-3.45.12-5-.44-3.47-1.21-4.86-5.69-8.24-7.12-2.53-1.07-5.45-.12-7.9,1.12s-4.88,2.79-7.62,3c-2.39.16-5-.73-7.06.44-1.56.87-2.37,2.66-3.8,3.71a9,9,0,0,1-5,1.35,14,14,0,0,0-5.13.84c-1.58.72-2.89,2.4-2.56,4.11Z" style="fill:#f5f5f5"></path><path d="M296.8,101.84c.65-4.75-6.06-8.66-11.1-9.07-2.4-.19-4.9.18-7.18-.62-4.93-1.72-6.9-8.09-11.72-10.12-3.6-1.52-7.74-.17-11.23,1.59s-6.94,4-10.84,4.22c-3.39.21-7.07-1-10,.61-2.21,1.24-3.37,3.78-5.4,5.29s-4.6,1.78-7.07,1.91-5,.16-7.29,1.19-4.11,3.42-3.65,5.85Z" style="fill:#f5f5f5"></path><path d="M369.88,55.77c.61-4.45-5.67-8.11-10.39-8.49-2.25-.18-4.58.16-6.72-.58-4.61-1.61-6.46-7.58-11-9.48-3.36-1.42-7.24-.16-10.51,1.49s-6.49,3.71-10.14,3.94c-3.18.21-6.62-1-9.4.58-2.07,1.16-3.15,3.54-5.06,5s-4.3,1.67-6.61,1.79-4.72.15-6.82,1.12-3.86,3.19-3.42,5.47Z" style="fill:#f5f5f5"></path><path d="M716.3,132.82c.61-4.45-5.66-8.11-10.38-8.49-2.25-.18-4.59.17-6.72-.58-4.62-1.61-6.46-7.57-11-9.47-3.37-1.43-7.25-.16-10.51,1.48s-6.5,3.72-10.15,3.95c-3.17.2-6.62-1-9.39.58-2.07,1.15-3.16,3.54-5.06,4.94s-4.3,1.67-6.62,1.8-4.71.15-6.82,1.11-3.85,3.19-3.41,5.47Z" style="fill:#f5f5f5"></path><path d="M103.74,128.41c.41-2.94-3.74-5.36-6.85-5.61-1.49-.12-3,.11-4.44-.38-3-1.06-4.27-5-7.24-6.26-2.22-.93-4.78-.1-6.94,1s-4.29,2.45-6.7,2.6c-2.09.14-4.37-.64-6.2.38-1.36.77-2.08,2.34-3.34,3.27a7.93,7.93,0,0,1-4.37,1.18,12.19,12.19,0,0,0-4.5.74,3.55,3.55,0,0,0-2.25,3.61Z" style="fill:#f5f5f5"></path><path d="M538.86,62.62c.41-2.94-3.74-5.35-6.85-5.6-1.49-.12-3,.1-4.44-.39-3.05-1.06-4.27-5-7.24-6.25-2.22-.94-4.78-.1-6.94,1s-4.29,2.45-6.7,2.6c-2.09.14-4.37-.64-6.2.39-1.37.76-2.08,2.33-3.34,3.26a7.93,7.93,0,0,1-4.37,1.18,12.4,12.4,0,0,0-4.5.74A3.56,3.56,0,0,0,486,63.14Z" style="fill:#e0e0e0"></path><circle cx="397.92" cy="104.5" r="13.26" transform="translate(202.15 466.34) rotate(-76.3)" style="fill:#e0e0e0"></circle><path d="M396,134.13a52.38,52.38,0,0,1-.14-5.46,52.66,52.66,0,0,1,.14-5.47,52.66,52.66,0,0,1,.14,5.47A52.38,52.38,0,0,1,396,134.13Z" style="fill:#e0e0e0"></path><path d="M388.39,120.12c.07,0-1.18,2.32-2.78,5.1s-3,5-3,5,1.18-2.32,2.79-5.1S388.33,120.08,388.39,120.12Z" style="fill:#e0e0e0"></path><path d="M380.55,115.24a30.39,30.39,0,0,1-3.09,2.64,30.91,30.91,0,0,1-3.27,2.42,29,29,0,0,1,3.09-2.64A29.29,29.29,0,0,1,380.55,115.24Z" style="fill:#e0e0e0"></path><path d="M409.25,128.75a8.72,8.72,0,0,1-.35-1.35c-.19-.83-.46-2-.79-3.24s-.69-2.39-.94-3.21a7.66,7.66,0,0,1-.37-1.34,7.1,7.1,0,0,1,.56,1.28c.3.8.67,1.93,1,3.2a32.66,32.66,0,0,1,.73,3.27A5.82,5.82,0,0,1,409.25,128.75Z" style="fill:#e0e0e0"></path><path d="M422.7,119.21a44.76,44.76,0,0,1-3.92-3.24,46.79,46.79,0,0,1-3.73-3.45,45.59,45.59,0,0,1,3.91,3.24A46,46,0,0,1,422.7,119.21Z" style="fill:#e0e0e0"></path><path d="M427.85,106.1a11.49,11.49,0,0,1-1.6-.23c-1-.17-2.34-.38-3.85-.55s-2.88-.27-3.87-.34a9.1,9.1,0,0,1-1.61-.14,8.55,8.55,0,0,1,1.62,0c1,0,2.38.08,3.89.25s2.88.42,3.86.63A7.94,7.94,0,0,1,427.85,106.1Z" style="fill:#e0e0e0"></path><path d="M427.87,93.21c0,.07-2.86.83-6.41,1.7S415,96.42,415,96.34s2.85-.83,6.41-1.7S427.85,93.13,427.87,93.21Z" style="fill:#e0e0e0"></path><path d="M412.89,78.18c.06,0-1.31,2.24-3.07,4.9a55.82,55.82,0,0,1-3.3,4.73c-.06,0,1.31-2.23,3.07-4.89S412.82,78.14,412.89,78.18Z" style="fill:#e0e0e0"></path><path d="M398,75.05a12,12,0,0,1,0,1.82c0,1.12,0,2.67,0,4.38s0,3.26.05,4.38a13.08,13.08,0,0,1,0,1.82,9.85,9.85,0,0,1-.19-1.81c-.07-1.12-.12-2.67-.12-4.39s0-3.27.11-4.39A10.57,10.57,0,0,1,398,75.05Z" style="fill:#e0e0e0"></path><path d="M386.77,89.07a56.67,56.67,0,0,1-3.12-4.84,56.83,56.83,0,0,1-2.88-5c.06,0,1.46,2.12,3.11,4.84S386.83,89,386.77,89.07Z" style="fill:#e0e0e0"></path><path d="M380,94.78a6.23,6.23,0,0,1-1.41-.22c-.86-.18-2-.47-3.33-.85s-2.44-.78-3.26-1.1a6.84,6.84,0,0,1-1.31-.57,7.5,7.5,0,0,1,1.37.39c.84.26,2,.63,3.28,1s2.45.7,3.3.93A8.39,8.39,0,0,1,380,94.78Z" style="fill:#e0e0e0"></path><path d="M377.1,105a33.47,33.47,0,0,1-4.23.54,31.13,31.13,0,0,1-4.25.27,62.5,62.5,0,0,1,8.48-.81Z" style="fill:#e0e0e0"></path><path d="M606.11,38.89s-.36-.09-1-.22a8.27,8.27,0,0,0-2.71-.07,7.28,7.28,0,0,0-3.63,1.59,7.56,7.56,0,0,0-2.56,4.07v.05l-.16.6-.23-.57a8.11,8.11,0,0,0-3.07-3.71A7.89,7.89,0,0,0,589,39.35a10.32,10.32,0,0,0-3.67.47,3.13,3.13,0,0,1,.93-.41,7.77,7.77,0,0,1,2.76-.34A8,8,0,0,1,593,40.31a8.41,8.41,0,0,1,3.24,3.88l-.39,0v0a7.78,7.78,0,0,1,2.72-4.27,7.46,7.46,0,0,1,3.83-1.59,7.37,7.37,0,0,1,2.79.21A3.22,3.22,0,0,1,606.11,38.89Z" style="fill:#e0e0e0"></path><path d="M620.1,99.08s-.7-.24-2-.53a16.18,16.18,0,0,0-5.6-.21,15,15,0,0,0-7.54,3.25,15.6,15.6,0,0,0-5.32,8.45l0,.1-.15.6-.24-.57a16.77,16.77,0,0,0-6.37-7.7,16.26,16.26,0,0,0-7.78-2.59,17.18,17.18,0,0,0-5.56.5c-1.29.34-2,.64-2,.6a2.81,2.81,0,0,1,.48-.23,12.68,12.68,0,0,1,1.45-.52,16.66,16.66,0,0,1,5.63-.64,16.18,16.18,0,0,1,8,2.57A17,17,0,0,1,599.6,110l-.39,0,0-.1a15.88,15.88,0,0,1,5.48-8.65,15.48,15.48,0,0,1,13.41-2.9,9.72,9.72,0,0,1,1.48.47A3,3,0,0,1,620.1,99.08Z" style="fill:#e0e0e0"></path><path d="M676.06,68.38s-.4-.11-1.11-.26a9.17,9.17,0,0,0-3.06-.09,8.3,8.3,0,0,0-4.11,1.79,8.57,8.57,0,0,0-2.89,4.61v0l-.16.6-.23-.57a9.24,9.24,0,0,0-3.46-4.2,8.91,8.91,0,0,0-4.24-1.43,9.39,9.39,0,0,0-3,.25c-.71.17-1.08.33-1.1.29a1.21,1.21,0,0,1,.26-.14,5.82,5.82,0,0,1,.8-.3,8.78,8.78,0,0,1,3.1-.39A8.94,8.94,0,0,1,661.23,70a9.36,9.36,0,0,1,3.64,4.36l-.39,0,0-.06a8.75,8.75,0,0,1,3-4.8,8.34,8.34,0,0,1,4.3-1.78A8.07,8.07,0,0,1,675,68a4.69,4.69,0,0,1,.81.27A1.16,1.16,0,0,1,676.06,68.38Z" style="fill:#e0e0e0"></path><path d="M639.47,55.81A14.46,14.46,0,0,1,638.4,57a26.29,26.29,0,0,0-2.63,3.55,25.86,25.86,0,0,0-3.9,13.8v.17l-.4,0a22.71,22.71,0,0,0-2.53-7.47,23.46,23.46,0,0,0-7.17-8c-.85-.59-1.34-.89-1.32-.92a2,2,0,0,1,.37.18,11.31,11.31,0,0,1,1,.61,20.22,20.22,0,0,1,3.44,2.75,22.79,22.79,0,0,1,6.57,12.8l-.41,0v-.18a25.41,25.41,0,0,1,4.06-14,24,24,0,0,1,2.75-3.5c.36-.38.67-.65.87-.84A1.47,1.47,0,0,1,639.47,55.81Z" style="fill:#e0e0e0"></path></g><g id="freepik--Floor--inject-77"><path d="M727.71,358.06c0,.15-157.93.26-352.69.26s-352.73-.11-352.73-.26,157.89-.26,352.73-.26S727.71,357.92,727.71,358.06Z" style="fill:#263238"></path><path d="M727.71,431c0,.15-157.93.26-352.69.26S22.29,431.19,22.29,431s157.89-.26,352.73-.26S727.71,430.9,727.71,431Z" style="fill:#263238"></path></g><g id="freepik--Fence--inject-77"><rect x="539.51" y="365.82" width="6.99" height="65.47" style="fill:#b5725d"></rect><path d="M546.49,431.29s0-.12,0-.34,0-.58,0-1c0-.9,0-2.17,0-3.79,0-3.3,0-8-.07-13.91,0-11.77-.07-28.09-.12-46.44l.26.26h-7c.51-.52.14-.13.26-.24v10.67c0,3.48,0,6.89,0,10.2,0,6.6,0,12.81,0,18.48,0,11.28-.08,20.37-.1,26.1l-.11-.11,5.16.07,1.35,0,.47,0a2,2,0,0,1-.43,0l-1.32,0-5.23.06h-.11v-.12c0-5.73-.06-14.82-.1-26.1,0-5.67,0-11.88,0-18.48,0-3.31,0-6.72,0-10.2v-5.29c0-.89,0-1.79,0-2.69v-2.69c.12-.12-.26.24.27-.28h7.24v.26c0,18.42-.08,34.81-.11,46.63,0,5.85-.06,10.56-.08,13.85q0,2.4,0,3.72c0,.4,0,.72,0,1A1,1,0,0,1,546.49,431.29Z" style="fill:#263238"></path><rect x="24.73" y="369.71" width="514.1" height="5.27" style="fill:#b5725d"></rect><path d="M538.82,375c0-.18,0-1,0-5.27l0,0L24.75,370h0l.26-.26V375l-.26-.26,514.09.26-514.09.26h-.26v-5.79h.28l514.07.24h0v0C538.83,374,538.83,374.8,538.82,375Z" style="fill:#263238"></path><rect x="24.73" y="388.52" width="514.1" height="5.27" style="fill:#b5725d"></rect><path d="M538.82,393.79c0-.18,0-1,0-5.27l0,0-514.07.23h0l.26-.26v5.27l-.26-.26,514.09.26-514.09.26h-.26v-5.79h.28l514.07.24h0v0C538.83,392.83,538.83,393.61,538.82,393.79Z" style="fill:#263238"></path><rect x="47.37" y="365.82" width="6.99" height="65.47" style="fill:#b5725d"></rect><path d="M54.36,431.29a2.3,2.3,0,0,1,0-.34c0-.25,0-.58,0-1,0-.9,0-2.17,0-3.79,0-3.3,0-8-.08-13.91,0-11.77-.07-28.09-.11-46.44l.26.26h-7c.52-.52.14-.13.26-.24v10.67c0,3.48,0,6.89,0,10.2,0,6.6,0,12.81,0,18.48-.05,11.28-.09,20.37-.11,26.1l-.11-.11,5.17.07,1.35,0,.47,0a2.3,2.3,0,0,1-.43,0l-1.33,0-5.23.06h-.11v-.12c0-5.73-.06-14.82-.11-26.1,0-5.67,0-11.88,0-18.48,0-3.31,0-6.72,0-10.2V365.84c.12-.12-.26.24.26-.28h7.25v.26c0,18.42-.09,34.81-.11,46.63,0,5.85-.06,10.56-.08,13.85,0,1.6,0,2.84,0,3.72,0,.4,0,.72,0,1S54.36,431.3,54.36,431.29Z" style="fill:#263238"></path><rect x="140.3" y="365.82" width="6.99" height="65.47" style="fill:#b5725d"></rect><path d="M147.29,431.29a2.3,2.3,0,0,1,0-.34c0-.25,0-.58,0-1,0-.9,0-2.17,0-3.79,0-3.3-.05-8-.08-13.91,0-11.77-.07-28.09-.11-46.44l.26.26h-7c.52-.52.14-.13.26-.24v10.67c0,3.48,0,6.89,0,10.2,0,6.6,0,12.81,0,18.48-.05,11.28-.09,20.37-.11,26.1l-.11-.11,5.17.07,1.35,0,.47,0a2.36,2.36,0,0,1-.44,0l-1.32,0-5.23.06h-.11v-.12c0-5.73-.06-14.82-.11-26.1,0-5.67,0-11.88,0-18.48,0-3.31,0-6.72,0-10.2V365.84c.12-.12-.27.24.26-.28h7.25v.26c-.05,18.42-.09,34.81-.11,46.63,0,5.85-.06,10.56-.08,13.85,0,1.6,0,2.84,0,3.72,0,.4,0,.72,0,1S147.29,431.3,147.29,431.29Z" style="fill:#263238"></path><rect x="240.1" y="365.82" width="6.99" height="65.47" style="fill:#b5725d"></rect><path d="M247.09,431.29a2.3,2.3,0,0,1,0-.34c0-.25,0-.58,0-1,0-.9,0-2.17,0-3.79,0-3.3-.05-8-.08-13.91,0-11.77-.07-28.09-.11-46.44l.26.26h-7c.52-.52.15-.13.26-.24v10.67c0,3.48,0,6.89,0,10.2,0,6.6,0,12.81,0,18.48,0,11.28-.09,20.37-.11,26.1l-.11-.11,5.17.07,1.35,0,.47,0a2.17,2.17,0,0,1-.43,0l-1.33,0-5.23.06H240v-.12c0-5.73-.06-14.82-.11-26.1,0-5.67,0-11.88,0-18.48,0-3.31,0-6.72,0-10.2V365.84c.12-.12-.26.24.26-.28h7.25v.26c0,18.42-.08,34.81-.11,46.63,0,5.85-.06,10.56-.08,13.85,0,1.6,0,2.84,0,3.72,0,.4,0,.72,0,1S247.09,431.3,247.09,431.29Z" style="fill:#263238"></path><rect x="339.9" y="365.82" width="6.99" height="65.47" style="fill:#b5725d"></rect><path d="M346.89,431.29a2.3,2.3,0,0,1,0-.34c0-.25,0-.58,0-1,0-.9,0-2.17,0-3.79,0-3.3-.05-8-.08-13.91,0-11.77-.06-28.09-.11-46.44l.26.26h-7c.51-.52.14-.13.25-.24v10.67c0,3.48,0,6.89,0,10.2,0,6.6,0,12.81,0,18.48-.05,11.28-.08,20.37-.11,26.1l-.11-.11,5.17.07,1.35,0,.47,0a2.17,2.17,0,0,1-.43,0l-1.33,0-5.23.06h-.11v-.12c0-5.73-.06-14.82-.11-26.1,0-5.67,0-11.88,0-18.48,0-3.31,0-6.72,0-10.2V365.84c.12-.12-.26.24.27-.28h7.24v.26c0,18.42-.08,34.81-.11,46.63,0,5.85-.06,10.56-.08,13.85,0,1.6,0,2.84,0,3.72,0,.4,0,.72,0,1A1.64,1.64,0,0,1,346.89,431.29Z" style="fill:#263238"></path><rect x="439.7" y="365.82" width="6.99" height="65.47" style="fill:#b5725d"></rect><path d="M446.69,431.29s0-.12,0-.34,0-.58,0-1c0-.9,0-2.17,0-3.79,0-3.3,0-8-.08-13.91,0-11.77-.06-28.09-.11-46.44l.26.26h-7c.51-.52.14-.13.25-.24v10.67c0,3.48,0,6.89,0,10.2,0,6.6,0,12.81,0,18.48,0,11.28-.08,20.37-.11,26.1l-.11-.11,5.17.07,1.35,0,.47,0a2.17,2.17,0,0,1-.43,0l-1.32,0-5.24.06h-.11v-.12c0-5.73-.06-14.82-.11-26.1,0-5.67,0-11.88,0-18.48v-10.2c0-1.75,0-3.51,0-5.29v-5.38c.12-.12-.26.24.27-.28H447v.26c0,18.42-.08,34.81-.11,46.63,0,5.85-.06,10.56-.08,13.85q0,2.4,0,3.72c0,.4,0,.72,0,1A1.64,1.64,0,0,1,446.69,431.29Z" style="fill:#263238"></path></g><g id="freepik--Plants--inject-77"><path d="M355.58,406.94c.13-.05,2.65,5.33,5.62,12s5.28,12.18,5.15,12.24-2.65-5.33-5.62-12S355.45,407,355.58,406.94Z" style="fill:#263238"></path><path d="M367.78,410.74a97.5,97.5,0,0,1,1.06,10,97.36,97.36,0,0,1,.55,10,95.7,95.7,0,0,1-1.07-10A98.76,98.76,0,0,1,367.78,410.74Z" style="fill:#263238"></path><path d="M377.66,419.4c.13.07-1.18,2.49-2.43,5.63s-2,5.79-2.14,5.75a20.48,20.48,0,0,1,1.65-5.94A20.16,20.16,0,0,1,377.66,419.4Z" style="fill:#263238"></path><path d="M478.76,414.41a13.72,13.72,0,0,1,1.66,2.26c1,1.44,2.23,3.46,3.54,5.75s2.42,4.42,3.17,6a14,14,0,0,1,1.11,2.58,15.68,15.68,0,0,1-1.43-2.41c-.93-1.65-2.06-3.66-3.3-5.88s-2.44-4.18-3.4-5.81A16.39,16.39,0,0,1,478.76,414.41Z" style="fill:#263238"></path><path d="M490.07,410.5a96.57,96.57,0,0,1,.19,10.14,99.32,99.32,0,0,1-.32,10.14,97.93,97.93,0,0,1-.2-10.14A100.9,100.9,0,0,1,490.07,410.5Z" style="fill:#263238"></path><path d="M618.52,406.5c.13-.06,2.65,5.33,5.62,12s5.28,12.18,5.15,12.23-2.65-5.32-5.62-12S618.39,406.56,618.52,406.5Z" style="fill:#263238"></path><path d="M630.72,410.29a97.93,97.93,0,0,1,1.06,10,92.28,92.28,0,0,1,.54,10c-.14,0-.61-4.47-1.06-10A98.78,98.78,0,0,1,630.72,410.29Z" style="fill:#263238"></path><path d="M640.6,419c.13.08-1.18,2.5-2.43,5.64s-2,5.78-2.14,5.75A27.86,27.86,0,0,1,640.6,419Z" style="fill:#263238"></path></g><g id="freepik--Silo--inject-77"><rect x="86.69" y="110.05" width="10.4" height="193.92" rx="4.15" style="fill:#455a64"></rect><path d="M126.13,56.62h0A31.09,31.09,0,0,1,157.21,87.7V301A6.26,6.26,0,0,1,151,307.3H101.3A6.26,6.26,0,0,1,95,301V87.7a31.09,31.09,0,0,1,31.09-31.09Z" style="fill:#e0e0e0"></path><rect x="39.45" y="303.97" width="119.96" height="4.53" style="fill:#e0e0e0"></rect><rect x="44.54" y="307.3" width="112.68" height="50.55" style="fill:#e0e0e0"></rect><rect x="92.88" y="84.91" width="67.31" height="4.04" rx="1.62" style="fill:#e0e0e0"></rect><path d="M158.58,89s.12,0,.35-.06a1.63,1.63,0,0,0,.85-.56,1.49,1.49,0,0,0,.31-.67,5.59,5.59,0,0,0,0-.93,1.54,1.54,0,0,0-1.17-1.67c-3.49-.06-8.65,0-15,0l-49.47.08a1.35,1.35,0,0,0-1.22.76,1.57,1.57,0,0,0-.14.76c0,.29,0,.63,0,.85a1.36,1.36,0,0,0,.92,1.09,2.51,2.51,0,0,0,.8.06h21l22.24.06,15,.08,4.07.05,1.06,0a2.71,2.71,0,0,1,.37,0l-.37,0-1.06,0-4.07,0-15,.09-22.24,0-13.13,0H94.88a3,3,0,0,1-1-.09,1.87,1.87,0,0,1-1.27-1.5,7.52,7.52,0,0,1,0-.93,2.08,2.08,0,0,1,.19-1,1.89,1.89,0,0,1,1.69-1l49.47.07c6.34,0,11.43,0,15,.14a1.74,1.74,0,0,1,1.29,1.87,5.8,5.8,0,0,1-.05,1,1.69,1.69,0,0,1-.36.72,1.65,1.65,0,0,1-.92.54A1,1,0,0,1,158.58,89Z" style="fill:#263238"></path><path d="M157.68,99c0,.14-14,.26-31.24.26S95.19,99.17,95.19,99s14-.26,31.25-.26S157.68,98.88,157.68,99Z" style="fill:#263238"></path><path d="M157.68,111.23c0,.15-14,.26-31.24.26s-31.25-.11-31.25-.26,14-.26,31.25-.26S157.68,111.09,157.68,111.23Z" style="fill:#263238"></path><path d="M157.68,123.44c0,.14-14,.26-31.24.26s-31.25-.12-31.25-.26,14-.26,31.25-.26S157.68,123.3,157.68,123.44Z" style="fill:#263238"></path><path d="M157.68,135.65c0,.14-14,.26-31.24.26s-31.25-.12-31.25-.26,14-.26,31.25-.26S157.68,135.5,157.68,135.65Z" style="fill:#263238"></path><path d="M157.68,147.85c0,.15-14,.26-31.24.26s-31.25-.11-31.25-.26,14-.26,31.25-.26S157.68,147.71,157.68,147.85Z" style="fill:#263238"></path><path d="M157.68,160.06c0,.14-14,.26-31.24.26s-31.25-.12-31.25-.26,14-.26,31.25-.26S157.68,159.92,157.68,160.06Z" style="fill:#263238"></path><path d="M157.68,172.27c0,.14-14,.26-31.24.26s-31.25-.12-31.25-.26,14-.26,31.25-.26S157.68,172.12,157.68,172.27Z" style="fill:#263238"></path><path d="M157.68,184.47c0,.15-14,.27-31.24.27s-31.25-.12-31.25-.27,14-.26,31.25-.26S157.68,184.33,157.68,184.47Z" style="fill:#263238"></path><path d="M157.68,196.68c0,.15-14,.26-31.24.26s-31.25-.11-31.25-.26,14-.26,31.25-.26S157.68,196.54,157.68,196.68Z" style="fill:#263238"></path><path d="M157.68,208.89c0,.14-14,.26-31.24.26s-31.25-.12-31.25-.26,14-.26,31.25-.26S157.68,208.74,157.68,208.89Z" style="fill:#263238"></path><path d="M157.68,221.1c0,.14-14,.26-31.24.26s-31.25-.12-31.25-.26,14-.27,31.25-.27S157.68,221,157.68,221.1Z" style="fill:#263238"></path><path d="M157.68,233.3c0,.15-14,.26-31.24.26s-31.25-.11-31.25-.26,14-.26,31.25-.26S157.68,233.16,157.68,233.3Z" style="fill:#263238"></path><path d="M157.68,245.51c0,.14-14,.26-31.24.26s-31.25-.12-31.25-.26,14-.26,31.25-.26S157.68,245.37,157.68,245.51Z" style="fill:#263238"></path><path d="M157.68,257.72c0,.14-14,.26-31.24.26s-31.25-.12-31.25-.26,14-.26,31.25-.26S157.68,257.57,157.68,257.72Z" style="fill:#263238"></path><path d="M157.68,270.28c0,.15-14,.27-31.24.27s-31.25-.12-31.25-.27,14-.26,31.25-.26S157.68,270.14,157.68,270.28Z" style="fill:#263238"></path><path d="M157.68,282.85c0,.15-14,.26-31.24.26s-31.25-.11-31.25-.26,14-.26,31.25-.26S157.68,282.71,157.68,282.85Z" style="fill:#263238"></path><path d="M157.68,295.42c0,.15-14,.26-31.24.26s-31.25-.11-31.25-.26,14-.26,31.25-.26S157.68,295.28,157.68,295.42Z" style="fill:#263238"></path><path d="M39.45,308.5s0-.34,0-1.08,0-1.9,0-3.45v-.07h.07c13.57-.11,62.17-.19,120-.19h.27v5.05h-.26l-85.1-.11-25.57-.08-6.91,0-1.79,0h-.59s.22,0,.63,0l1.82,0,7,0,25.63-.08,84.91-.1-.26.26V304l.26.26h0c-57.78,0-106.38-.08-119.95-.19l.06-.07c0,1.53,0,2.65,0,3.41S39.45,308.5,39.45,308.5Z" style="fill:#263238"></path><g style="opacity:0.30000000000000004"><polygon points="44.54 318.24 157.21 312.03 157.21 308.5 44.53 308.5 44.54 318.24"></polygon></g></g><g id="freepik--Windmill--inject-77"><path d="M492.06,138.45c-.82.41-22.9,11.85-22.9,11.85l4.49,5.52,19.63-15.12Z" style="fill:#263238"></path><path d="M495.29,144.75c-.65.64-18.22,18.25-18.22,18.25l6,3.9,14.11-20.38Z" style="fill:#263238"></path><path d="M489,132.1c-.91.1-25.06,1.28-25.06,1.28l1.74,8.56,23.68-7.3Z" style="fill:#263238"></path><path d="M489.65,125.38c-.9-.17-24.4-5.85-24.4-5.85l-.75,8.7,24.78-.32Z" style="fill:#263238"></path><path d="M493.79,120.28c-.72-.57-18.77-16.65-18.77-16.65L470.26,111l22,11.39Z" style="fill:#263238"></path><path d="M498.89,117.75c-.34-.85-8-23.77-8-23.77l-7.77,4,13.45,20.81Z" style="fill:#263238"></path><path d="M506.43,117c.09-.91,3.87-24.79,3.87-24.79l-8.73,0,2.3,24.68Z" style="fill:#263238"></path><path d="M513.37,132.92a6.68,6.68,0,1,1-6.68-6.68A6.68,6.68,0,0,1,513.37,132.92Z" style="fill:#263238"></path><path d="M482,359.41c-.35,0,4.1-47.85,10-106.78S502.86,145.93,503.21,146s-4.1,47.84-9.95,106.79S482.38,359.45,482,359.41Z" style="fill:#263238"></path><path d="M533.59,357.91c-.35,0-5.37-46.76-11.21-104.52s-10.28-104.62-9.92-104.65,5.37,46.75,11.21,104.52S534,357.87,533.59,357.91Z" style="fill:#263238"></path><path d="M519.9,224.42c0,.35-5.16.64-11.53.64s-11.53-.29-11.53-.64,5.16-.65,11.53-.65S519.9,224.06,519.9,224.42Z" style="fill:#263238"></path><path d="M524.84,276.83c0,.36-7.53.65-16.82.65s-16.83-.29-16.83-.65,7.53-.65,16.83-.65S524.84,276.47,524.84,276.83Z" style="fill:#263238"></path><path d="M531,330.26c0,.36-10.22.65-22.82.65s-22.81-.29-22.81-.65,10.21-.64,22.81-.64S531,329.91,531,330.26Z" style="fill:#263238"></path><path d="M507.31,137c.35,0,1.06,49.45,1.58,110.43s.65,110.46.3,110.46-1.07-49.44-1.59-110.45S507,137,507.31,137Z" style="fill:#263238"></path><path d="M537.34,134.05a3.61,3.61,0,0,1-.06-.51c0-.37-.06-.86-.1-1.49,0-.33,0-.7-.08-1.1s-.13-.83-.2-1.31a23.2,23.2,0,0,0-.66-3.23,30.11,30.11,0,0,0-3.49-8.31,31.15,31.15,0,0,0-37.41-13.27,33.79,33.79,0,0,0-4.06,1.78,35.17,35.17,0,0,0-3.81,2.45,36.85,36.85,0,0,0-3.53,3,36.48,36.48,0,0,0-3,3.61,29.89,29.89,0,0,0-4.44,8.56,30.78,30.78,0,0,0,0,19.62,30.23,30.23,0,0,0,4.45,8.57,36.48,36.48,0,0,0,3,3.61,36.85,36.85,0,0,0,3.53,3,34.22,34.22,0,0,0,3.81,2.45,32.27,32.27,0,0,0,4.06,1.78A31.21,31.21,0,0,0,532.75,150a30.11,30.11,0,0,0,3.49-8.31,23.2,23.2,0,0,0,.66-3.23c.07-.47.16-.91.2-1.31s0-.77.08-1.1c0-.63.08-1.12.1-1.49a3.3,3.3,0,0,1,.06-.5,2.38,2.38,0,0,1,0,.5c0,.37,0,.87,0,1.5,0,.33,0,.7,0,1.1s-.12.85-.18,1.33a21.48,21.48,0,0,1-.61,3.26,29.59,29.59,0,0,1-3.42,8.43,31.59,31.59,0,0,1-21.28,15A32.26,32.26,0,0,1,491,162a32.93,32.93,0,0,1-3.9-2.49,28.71,28.71,0,0,1-6.71-6.73,30.42,30.42,0,0,1-4.55-8.74,31.46,31.46,0,0,1,0-20,30.78,30.78,0,0,1,4.54-8.74,28.92,28.92,0,0,1,6.71-6.72,32.93,32.93,0,0,1,3.9-2.49,31.6,31.6,0,0,1,42.06,11.83,29.75,29.75,0,0,1,3.42,8.44,21.36,21.36,0,0,1,.61,3.27c.06.47.14.91.18,1.32s0,.77,0,1.1c0,.63,0,1.13,0,1.5A2.52,2.52,0,0,1,537.34,134.05Z" style="fill:#263238"></path><path d="M517.7,123.88c1,.14,23.59-6.61,23.59-6.61L535,106.2l-18,15.59Z" style="fill:#263238"></path><path d="M512.46,118.59c.65-.64,19.45-17.6,19.45-17.6L523,94.17l-12.43,23.56Z" style="fill:#263238"></path><path d="M520.4,132.4c.91-.1,25.06-1.28,25.06-1.28l-1.73-8.55L520,129.86Z" style="fill:#263238"></path><path d="M519.28,141c.89.21,24.11,6.95,24.11,6.95l1.14-8.66-24.76-.8Z" style="fill:#263238"></path><path d="M515.89,146.65c.71.57,18.76,16.65,18.76,16.65l4.76-7.32-22-11.39Z" style="fill:#263238"></path><path d="M510.59,147.73c.34.85,8,23.77,8,23.77l7.77-4L512.94,146.7Z" style="fill:#263238"></path><path d="M501.43,147.14c-.19.89-6.65,24.19-6.65,24.19l8.67,1,.5-24.77Z" style="fill:#263238"></path></g><g id="freepik--farm-house--inject-77"><polygon points="359.72 244.05 458.36 244.05 468.83 291.34 359.72 291.34 359.72 244.05" style="fill:#455a64"></polygon><rect x="359.72" y="290.98" width="100.5" height="66.87" style="fill:#FF725E"></rect><polygon points="359.72 357.85 359.72 224.26 323.69 161.35 252.63 123.7 187.98 162.34 153.21 227.23 153.21 357.85 359.72 357.85" style="fill:#FF725E"></polygon><path d="M360.18,267.69c0,.15-46.33.26-103.47.26s-103.48-.11-103.48-.26,46.32-.26,103.48-.26S360.18,267.55,360.18,267.69Z" style="fill:#263238"></path><path d="M360.18,277.89c0,.14-46.33.26-103.47.26s-103.48-.12-103.48-.26,46.32-.26,103.48-.26S360.18,277.74,360.18,277.89Z" style="fill:#263238"></path><path d="M360.18,288.08c0,.15-46.33.26-103.48.26s-103.49-.11-103.49-.26,46.33-.26,103.49-.26S360.18,287.94,360.18,288.08Z" style="fill:#263238"></path><path d="M360.18,298.28c0,.14-46.33.26-103.48.26s-103.49-.12-103.49-.26S199.54,298,256.7,298,360.18,298.13,360.18,298.28Z" style="fill:#263238"></path><path d="M360.18,308.47c0,.15-46.33.26-103.47.26s-103.48-.11-103.48-.26,46.32-.26,103.48-.26S360.18,308.33,360.18,308.47Z" style="fill:#263238"></path><path d="M360.18,318.67c0,.14-46.33.26-103.47.26s-103.48-.12-103.48-.26,46.32-.26,103.48-.26S360.18,318.53,360.18,318.67Z" style="fill:#263238"></path><path d="M360.18,328.86c0,.15-46.33.26-103.47.26s-103.48-.11-103.48-.26,46.32-.26,103.48-.26S360.18,328.72,360.18,328.86Z" style="fill:#263238"></path><rect x="153.21" y="252.77" width="206.51" height="5.84" style="fill:#fff"></rect><rect x="244.73" y="298.62" width="24.29" height="59.67" style="fill:#263238"></rect><rect x="153.21" y="338.49" width="67.49" height="5.3" style="fill:#fff"></rect><path d="M157.06,357.41a89.31,89.31,0,0,1,0-13.62,89.31,89.31,0,0,1,0,13.62Z" style="fill:#fff"></path><path d="M160.68,357.41a89.31,89.31,0,0,1,0-13.62,89.31,89.31,0,0,1,0,13.62Z" style="fill:#fff"></path><path d="M164.3,357.41a89.31,89.31,0,0,1,0-13.62,89.31,89.31,0,0,1,0,13.62Z" style="fill:#fff"></path><path d="M167.92,357.41a89.31,89.31,0,0,1,0-13.62,89.31,89.31,0,0,1,0,13.62Z" style="fill:#fff"></path><path d="M171.54,357.41a89.31,89.31,0,0,1,0-13.62,89.31,89.31,0,0,1,0,13.62Z" style="fill:#fff"></path><path d="M175.16,357.41a89.31,89.31,0,0,1,0-13.62,89.31,89.31,0,0,1,0,13.62Z" style="fill:#fff"></path><path d="M178.78,357.41a89.31,89.31,0,0,1,0-13.62,89.31,89.31,0,0,1,0,13.62Z" style="fill:#fff"></path><path d="M182.4,357.41a89.31,89.31,0,0,1,0-13.62,89.31,89.31,0,0,1,0,13.62Z" style="fill:#fff"></path><path d="M186,357.41a89.31,89.31,0,0,1,0-13.62,89.31,89.31,0,0,1,0,13.62Z" style="fill:#fff"></path><path d="M189.64,357.41a89.31,89.31,0,0,1,0-13.62,89.31,89.31,0,0,1,0,13.62Z" style="fill:#fff"></path><path d="M193.26,357.41a89.31,89.31,0,0,1,0-13.62,89.31,89.31,0,0,1,0,13.62Z" style="fill:#fff"></path><path d="M196.88,357.41a89.31,89.31,0,0,1,0-13.62,89.31,89.31,0,0,1,0,13.62Z" style="fill:#fff"></path><path d="M200.5,357.41a89.31,89.31,0,0,1,0-13.62,89.31,89.31,0,0,1,0,13.62Z" style="fill:#fff"></path><path d="M204.12,357.41a89.31,89.31,0,0,1,0-13.62,89.31,89.31,0,0,1,0,13.62Z" style="fill:#fff"></path><path d="M207.74,357.41a89.31,89.31,0,0,1,0-13.62,89.31,89.31,0,0,1,0,13.62Z" style="fill:#fff"></path><path d="M211.82,357.41a89.31,89.31,0,0,1,0-13.62,89.31,89.31,0,0,1,0,13.62Z" style="fill:#fff"></path><path d="M215.9,357.41a89.31,89.31,0,0,1,0-13.62,89.31,89.31,0,0,1,0,13.62Z" style="fill:#fff"></path><rect x="294.84" y="338.49" width="65.34" height="5.3" style="fill:#fff"></rect><path d="M310.12,358.41a49.32,49.32,0,0,1-.26-7.23,49.43,49.43,0,0,1,.26-7.23,51.16,51.16,0,0,1,.26,7.23A51,51,0,0,1,310.12,358.41Z" style="fill:#fff"></path><path d="M306.18,358.34a51.25,51.25,0,0,1-.26-7.24,51.16,51.16,0,0,1,.26-7.23,51.16,51.16,0,0,1,.26,7.23A51.25,51.25,0,0,1,306.18,358.34Z" style="fill:#fff"></path><path d="M302.24,358.26A51.25,51.25,0,0,1,302,351a51.16,51.16,0,0,1,.26-7.23,49.43,49.43,0,0,1,.26,7.23A49.51,49.51,0,0,1,302.24,358.26Z" style="fill:#fff"></path><path d="M298,358.26a51.25,51.25,0,0,1-.26-7.24,51.16,51.16,0,0,1,.26-7.23,49.43,49.43,0,0,1,.26,7.23A49.51,49.51,0,0,1,298,358.26Z" style="fill:#fff"></path><path d="M313.74,358.41a51,51,0,0,1-.26-7.23,51.16,51.16,0,0,1,.26-7.23,51.16,51.16,0,0,1,.26,7.23A51,51,0,0,1,313.74,358.41Z" style="fill:#fff"></path><path d="M317.36,358.41a51,51,0,0,1-.26-7.23,51.16,51.16,0,0,1,.26-7.23,51.16,51.16,0,0,1,.26,7.23A51,51,0,0,1,317.36,358.41Z" style="fill:#fff"></path><path d="M321,358.41a51,51,0,0,1-.26-7.23A51.16,51.16,0,0,1,321,344a51.16,51.16,0,0,1,.26,7.23A51,51,0,0,1,321,358.41Z" style="fill:#fff"></path><path d="M324.6,358.41a51,51,0,0,1-.26-7.23,51.16,51.16,0,0,1,.26-7.23,51.16,51.16,0,0,1,.26,7.23A51,51,0,0,1,324.6,358.41Z" style="fill:#fff"></path><path d="M328.22,358.41a51,51,0,0,1-.26-7.23,51.16,51.16,0,0,1,.26-7.23,51.16,51.16,0,0,1,.26,7.23A51,51,0,0,1,328.22,358.41Z" style="fill:#fff"></path><path d="M331.84,358.41a51,51,0,0,1-.26-7.23,51.16,51.16,0,0,1,.26-7.23,51.16,51.16,0,0,1,.26,7.23A51,51,0,0,1,331.84,358.41Z" style="fill:#fff"></path><path d="M335.46,358.41a51,51,0,0,1-.26-7.23,51.16,51.16,0,0,1,.26-7.23,51.16,51.16,0,0,1,.26,7.23A51,51,0,0,1,335.46,358.41Z" style="fill:#fff"></path><path d="M339.08,358.41a51,51,0,0,1-.26-7.23,51.16,51.16,0,0,1,.26-7.23,51.16,51.16,0,0,1,.26,7.23A51,51,0,0,1,339.08,358.41Z" style="fill:#fff"></path><path d="M342.7,358.41a51,51,0,0,1-.26-7.23,51.16,51.16,0,0,1,.26-7.23,51.16,51.16,0,0,1,.26,7.23A51,51,0,0,1,342.7,358.41Z" style="fill:#fff"></path><path d="M346.32,358.41a51,51,0,0,1-.26-7.23,51.16,51.16,0,0,1,.26-7.23,51.16,51.16,0,0,1,.26,7.23A51,51,0,0,1,346.32,358.41Z" style="fill:#fff"></path><path d="M349.94,358.41a51,51,0,0,1-.26-7.23,51.16,51.16,0,0,1,.26-7.23,51.16,51.16,0,0,1,.26,7.23A51,51,0,0,1,349.94,358.41Z" style="fill:#fff"></path><path d="M353.56,358.41a51,51,0,0,1-.26-7.23,51.16,51.16,0,0,1,.26-7.23,51.16,51.16,0,0,1,.26,7.23A51,51,0,0,1,353.56,358.41Z" style="fill:#fff"></path><path d="M357.18,358.41a51,51,0,0,1-.26-7.23,51.16,51.16,0,0,1,.26-7.23,51.16,51.16,0,0,1,.26,7.23A51,51,0,0,1,357.18,358.41Z" style="fill:#fff"></path><rect x="168.63" y="306.82" width="20.29" height="14.41" style="fill:#fff"></rect><rect x="171.54" y="309.7" width="14.48" height="8.64" style="fill:#455a64"></rect><rect x="328.96" y="306.82" width="20.29" height="14.41" style="fill:#fff"></rect><rect x="331.86" y="309.7" width="14.48" height="8.64" style="fill:#455a64"></rect><g style="opacity:0.30000000000000004"><polygon points="252.63 125.47 318.61 166.11 359.72 240.78 359.72 225.66 323.69 162.98 252.63 125.47"></polygon></g><rect x="220.7" y="297.23" width="36.81" height="61.13" style="fill:#fff"></rect><path d="M224.5,301.43c0,.31.42,49.66.42,49.66l12.28-24.83Z" style="fill:#FF725E"></path><path d="M254.33,301.43c0,.31-.42,49.66-.42,49.66l-12.28-24.83Z" style="fill:#FF725E"></path><polygon points="227.21 297.23 239.59 322.04 252.4 297.23 227.21 297.23" style="fill:#FF725E"></polygon><polygon points="251.7 355.36 239.31 331.43 227.21 355.36 251.7 355.36" style="fill:#FF725E"></polygon><path d="M220.7,359.06c-.14,0-.26-13.74-.26-30.7s.12-30.7.26-30.7.26,13.74.26,30.7S220.85,359.06,220.7,359.06Z" style="fill:#263238"></path><path d="M360.18,244c0,.14-46.33.26-103.47.26s-103.48-.12-103.48-.26,46.32-.26,103.48-.26S360.18,243.82,360.18,244Z" style="fill:#263238"></path><path d="M360.18,232.66c0,.14-46.33.26-103.47.26s-103.48-.12-103.48-.26,46.32-.26,103.48-.26S360.18,232.51,360.18,232.66Z" style="fill:#263238"></path><path d="M360.18,221.35c0,.14-46.33.26-103.47.26s-103.48-.12-103.48-.26,46.32-.26,103.48-.26S360.18,221.2,360.18,221.35Z" style="fill:#263238"></path><path d="M355.48,210c0,.14-44.41.26-99.19.26s-99.19-.12-99.19-.26,44.4-.26,99.19-.26S355.48,209.9,355.48,210Z" style="fill:#263238"></path><path d="M346.34,198.73c0,.14-39.92.26-89.16.26s-89.17-.12-89.17-.26,39.92-.26,89.17-.26S346.34,198.59,346.34,198.73Z" style="fill:#263238"></path><path d="M342.68,187.42c0,.14-39.1.26-87.33.26s-87.34-.12-87.34-.26,39.1-.26,87.34-.26S342.68,187.28,342.68,187.42Z" style="fill:#263238"></path><path d="M332.63,176.11c0,.14-35.17.26-78.54.26s-78.56-.12-78.56-.26,35.16-.26,78.56-.26S332.63,176,332.63,176.11Z" style="fill:#263238"></path><path d="M329.85,164.8c0,.14-33.54.26-74.89.26s-74.89-.12-74.89-.26,33.52-.26,74.89-.26S329.85,164.66,329.85,164.8Z" style="fill:#263238"></path><path d="M311.89,153.49c0,.14-25.33.26-56.57.26s-56.58-.12-56.58-.26,25.33-.26,56.58-.26S311.89,153.35,311.89,153.49Z" style="fill:#263238"></path><path d="M289.77,142.18a3.44,3.44,0,0,1-.76,0l-2.21.05-8.1.09-26.72.07-26.73-.07-8.1-.09-2.21-.05a3.44,3.44,0,0,1-.76,0,4.48,4.48,0,0,1,.76-.05l2.21,0,8.1-.08,26.73-.08,26.72.08,8.1.08,2.21,0A4.48,4.48,0,0,1,289.77,142.18Z" style="fill:#263238"></path><path d="M272.09,130.87c0,.15-8.09.26-18.06.26S236,131,236,130.87s8.08-.26,18.06-.26S272.09,130.73,272.09,130.87Z" style="fill:#263238"></path><polygon points="366.65 226.03 326.12 158.59 251.81 118.69 181.37 160.88 146.28 227.39 152.29 229.79 152.29 228.46 187.06 163.81 251.71 125.31 322.77 162.82 358.8 225.49 358.8 226.83 366.65 226.03" style="fill:#ebebeb"></polygon><path d="M366.65,226l-7.84.86h-.07v-1.38L322.62,162.9l.07.07L251.6,125.51h.22L187.19,164l.09-.1-34.76,64.66,0-.12v1.72l-.36-.15-6-2.39-.27-.11.13-.26.47-.87c11.93-22.63,23.54-44.63,34.62-65.63l0-.07.07,0,70.45-42.18.11-.06.11.06,74.29,40,0,0,0,0C351.58,200.84,366,224.92,366.65,226c-.67-1.11-15.18-25.12-40.68-67.35l.07.06L251.7,118.89h.22L181.5,161.1l.09-.1c-11.08,21-22.68,43-34.61,65.64l-.46.88-.14-.37,6,2.4-.36.24v-1.4l0-.06,34.78-64.64,0-.07.06,0,64.66-38.47.11-.07.11.06,71,37.56,0,0,0,0c17.3,30.19,29.85,52.11,35.93,62.73v0h0v1.34l-.07-.05Z" style="fill:#263238"></path><rect x="238.05" y="221.06" width="33.33" height="5.72" style="fill:#ebebeb"></rect><rect x="240.96" y="171.68" width="27.53" height="52.24" style="fill:#ebebeb"></rect><rect x="243.65" y="174.24" width="22.16" height="46.88" style="fill:#455a64"></rect><path d="M265.81,220.93l-.37,0-1.14,0-4.41.05-16.34.1h-.19v-.19c0-12.11,0-28.44-.07-46.37-.23.23.32-.32.26-.27h22.51v.24c-.05,13.54-.09,25.15-.12,33.41,0,4.07-.05,7.32-.07,9.58,0,1.08,0,1.93,0,2.53,0,.27,0,.48,0,.65a1.66,1.66,0,0,1,0,.21,1.35,1.35,0,0,1,0-.24c0-.18,0-.4,0-.67,0-.62,0-1.49,0-2.59,0-2.27,0-5.54-.07-9.63,0-8.22-.07-19.78-.12-33.25l.25.25H243.55c-.06.06.49-.49.26-.25,0,17.93-.05,34.26-.07,46.37l-.19-.19,16.22.1,4.46,0,1.17,0A2,2,0,0,1,265.81,220.93Z" style="fill:#263238"></path><rect x="240.96" y="196.23" width="27.53" height="2.54" style="fill:#e0e0e0"></rect><path d="M268.5,198.77a4.18,4.18,0,0,1-.05-.69c0-.47,0-1.09-.06-1.85l.11.11c-4.62.09-15.21.15-27.54.15h0c-.05.06.5-.49.26-.26h0v2.52l-.26-.26c7.67,0,14.51.05,19.47.11l5.87.07,1.61,0a2.7,2.7,0,0,1,.59,0,3.2,3.2,0,0,1-.52,0l-1.55,0-5.81.08c-5,.05-11.88.1-19.66.11h-.26v-2.78h0L241,196h0c12.33,0,22.92.06,27.54.16h.1v.1c0,.79,0,1.42-.06,1.91A5.4,5.4,0,0,1,268.5,198.77Z" style="fill:#263238"></path><path d="M270.45,221.06c0,.14-7.29.26-16.28.26s-16.28-.12-16.28-.26,7.29-.26,16.28-.26S270.45,220.92,270.45,221.06Z" style="fill:#263238"></path><rect x="258.04" y="297.27" width="36.81" height="61.13" transform="translate(552.88 655.67) rotate(180)" style="fill:#fff"></rect><path d="M291.05,301.47c0,.32-.42,49.66-.42,49.66L278.35,326.3Z" style="fill:#FF725E"></path><path d="M261.22,301.47c0,.32.42,49.66.42,49.66l12.28-24.83Z" style="fill:#FF725E"></path><polygon points="288.34 297.27 275.95 322.09 263.15 297.27 288.34 297.27" style="fill:#FF725E"></polygon><polygon points="263.84 355.4 276.23 331.47 288.34 355.4 263.84 355.4" style="fill:#FF725E"></polygon><path d="M294.93,358.29c-.14,0-.26-13.68-.26-30.55s.12-30.56.26-30.56.26,13.68.26,30.56S295.08,358.29,294.93,358.29Z" style="fill:#263238"></path><path d="M153.21,357.41c-.14,0-.26-29.22-.26-65.25s.12-65.27.26-65.27.26,29.22.26,65.27S153.35,357.41,153.21,357.41Z" style="fill:#263238"></path><path d="M360.06,357.41c-.14,0-.26-29.31-.26-65.45s.12-65.47.26-65.47.26,29.31.26,65.47S360.21,357.41,360.06,357.41Z" style="fill:#263238"></path><path d="M459.81,298.59c0,.14-22.52.26-50.3.26s-50.29-.12-50.29-.26,22.51-.26,50.29-.26S459.81,298.45,459.81,298.59Z" style="fill:#263238"></path><path d="M459.81,308.47c0,.15-22.52.26-50.3.26s-50.29-.11-50.29-.26,22.51-.26,50.29-.26S459.81,308.33,459.81,308.47Z" style="fill:#263238"></path><path d="M459.81,318.67c0,.14-22.27.26-49.72.26s-49.73-.12-49.73-.26,22.26-.26,49.73-.26S459.81,318.53,459.81,318.67Z" style="fill:#263238"></path><path d="M459.81,328.86c0,.15-22.31.26-49.81.26s-49.82-.11-49.82-.26,22.3-.26,49.82-.26S459.81,328.72,459.81,328.86Z" style="fill:#263238"></path><path d="M459.81,338.12c0,.15-22.33.26-49.87.26s-49.88-.11-49.88-.26,22.33-.26,49.88-.26S459.81,338,459.81,338.12Z" style="fill:#263238"></path><path d="M459.81,348c0,.15-22.31.27-49.81.27s-49.82-.12-49.82-.27,22.3-.26,49.82-.26S459.81,347.86,459.81,348Z" style="fill:#263238"></path><g style="opacity:0.30000000000000004"><polygon points="360.06 294.72 460.23 302.37 460.23 290.98 360.18 290.98 360.06 294.72"></polygon></g><rect x="203.4" y="291.34" width="109.37" height="6.29" style="fill:#fff"></rect><path d="M313,297.62c0,.15-24.49.26-54.7.26s-54.7-.11-54.7-.26,24.49-.26,54.7-.26S313,297.48,313,297.62Z" style="fill:#263238"></path></g><g id="freepik--House--inject-77"><rect x="649.78" y="343.72" width="62.39" height="14.71" style="fill:#ebebeb"></rect><polygon points="580.77 251.42 580.77 224.07 610.67 180.41 643.22 171.94 682.66 183.04 705.8 224.67 705.8 251.42 580.77 251.42" style="fill:#ebebeb"></polygon><polygon points="576.72 344.63 576.72 284.38 712.17 284.38 712.17 344.14 576.72 344.63" style="fill:#ebebeb"></polygon><path d="M712.17,335.87c0,.14-30.33.26-67.72.26s-67.73-.12-67.73-.26,30.32-.26,67.73-.26S712.17,335.73,712.17,335.87Z" style="fill:#e0e0e0"></path><path d="M712.17,329.22c0,.15-30.33.26-67.72.26s-67.73-.11-67.73-.26S607,329,644.45,329,712.17,329.08,712.17,329.22Z" style="fill:#e0e0e0"></path><path d="M712.17,322.58c0,.14-30.33.26-67.72.26s-67.73-.12-67.73-.26,30.32-.26,67.73-.26S712.17,322.43,712.17,322.58Z" style="fill:#e0e0e0"></path><path d="M712.17,315.93c0,.14-30.33.26-67.72.26s-67.73-.12-67.73-.26,30.32-.26,67.73-.26S712.17,315.79,712.17,315.93Z" style="fill:#e0e0e0"></path><path d="M712.17,309.28c0,.15-30.33.26-67.72.26s-67.73-.11-67.73-.26S607,309,644.45,309,712.17,309.14,712.17,309.28Z" style="fill:#e0e0e0"></path><path d="M712.17,302.64c0,.14-30.33.26-67.72.26s-67.73-.12-67.73-.26,30.32-.26,67.73-.26S712.17,302.49,712.17,302.64Z" style="fill:#e0e0e0"></path><path d="M712.17,296c0,.14-30.33.26-67.72.26s-67.73-.12-67.73-.26,30.32-.26,67.73-.26S712.17,295.84,712.17,296Z" style="fill:#e0e0e0"></path><path d="M712.17,289.34c0,.15-30.33.26-67.72.26s-67.73-.11-67.73-.26,30.32-.26,67.73-.26S712.17,289.2,712.17,289.34Z" style="fill:#e0e0e0"></path><path d="M705.67,244c0,.14-28,.26-62.45.26s-62.45-.12-62.45-.26,28-.26,62.45-.26S705.67,243.85,705.67,244Z" style="fill:#e0e0e0"></path><path d="M705.67,237.35c0,.14-28,.26-62.45.26s-62.45-.12-62.45-.26,28-.26,62.45-.26S705.67,237.2,705.67,237.35Z" style="fill:#e0e0e0"></path><path d="M705.67,230.7c0,.15-28,.26-62.45.26s-62.45-.11-62.45-.26,28-.26,62.45-.26S705.67,230.56,705.67,230.7Z" style="fill:#e0e0e0"></path><path d="M705.67,224.05c0,.15-28,.27-62.45.27s-62.45-.12-62.45-.27,28-.26,62.45-.26S705.67,223.91,705.67,224.05Z" style="fill:#e0e0e0"></path><path d="M697.29,217.41c0,.14-25,.26-55.95.26s-56-.12-56-.26,25-.26,56-.26S697.29,217.26,697.29,217.41Z" style="fill:#e0e0e0"></path><path d="M699.25,210.76c0,.14-25.24.26-56.38.26s-56.38-.12-56.38-.26,25.24-.26,56.38-.26S699.25,210.62,699.25,210.76Z" style="fill:#e0e0e0"></path><path d="M691.61,204.11c0,.15-22.13.26-49.41.26s-49.42-.11-49.42-.26,22.12-.26,49.42-.26S691.61,204,691.61,204.11Z" style="fill:#e0e0e0"></path><path d="M691.61,197.47c0,.14-22.13.26-49.41.26s-49.42-.12-49.42-.26,22.12-.26,49.42-.26S691.61,197.32,691.61,197.47Z" style="fill:#e0e0e0"></path><path d="M691.61,189c0,.15-22.13.26-49.41.26s-49.42-.11-49.42-.26,22.12-.26,49.42-.26S691.61,188.88,691.61,189Z" style="fill:#e0e0e0"></path><rect x="583.78" y="284.38" width="8.99" height="59.34" style="fill:#ebebeb"></rect><path d="M592.78,343.72a1.2,1.2,0,0,1,0-.32c0-.22,0-.52,0-.89,0-.81,0-1.95,0-3.41,0-3-.05-7.26-.08-12.57,0-10.65-.07-25.44-.11-42.15l.26.26h-9c.51-.52.14-.13.26-.24v2.37c0,.79,0,1.58,0,2.37v13.7c0,5.87,0,11.41,0,16.52,0,10.18-.07,18.6-.1,24.36l-.13-.13,6.65.07,1.74,0,.61,0-.57,0-1.71,0-6.72.08h-.12v-.13c0-5.76-.06-14.18-.1-24.36,0-5.11,0-10.65,0-16.52v-13.7c0-.79,0-1.58,0-2.37V284.4c.12-.12-.26.24.27-.28H593v.26c0,16.79-.08,31.64-.11,42.34,0,5.28-.06,9.54-.07,12.5,0,1.44,0,2.56,0,3.36,0,.35,0,.64,0,.86S592.78,343.72,592.78,343.72Z" style="fill:#263238"></path><rect x="641.96" y="284.38" width="8.99" height="59.34" style="fill:#ebebeb"></rect><path d="M651,343.72s0-.11,0-.32l0-.89c0-.81,0-1.95,0-3.41,0-3,0-7.26-.08-12.57,0-10.65-.07-25.44-.11-42.15l.25.26h-9c.51-.52.14-.13.25-.24v9.41q0,4.62,0,9c0,5.87,0,11.41,0,16.52,0,10.18-.08,18.6-.1,24.36l-.13-.13,6.65.07,1.74,0,.6,0a5.48,5.48,0,0,1-.56,0l-1.71,0-6.72.08h-.12v-.13c0-5.76-.06-14.18-.1-24.36,0-5.11,0-10.65,0-16.52v-9c0-1.54,0-3.1,0-4.67V284.4c.12-.12-.26.24.27-.28h9.24v.26c0,16.79-.08,31.64-.11,42.34,0,5.28-.06,9.54-.08,12.5q0,2.16,0,3.36c0,.35,0,.64,0,.86A.84.84,0,0,1,651,343.72Z" style="fill:#263238"></path><polygon points="580.64 249.61 562.13 284.38 723.25 284.38 706.31 249.61 580.64 249.61" style="fill:#FF725E"></polygon><polygon points="576.25 225.79 601.28 225.79 643.24 172.53 685.7 224.46 709.93 224.46 709.93 219.93 687.3 219.93 643.24 165.87 599.42 220.73 576.25 220.73 576.25 225.79" style="fill:#FF725E"></polygon><polygon points="596 171.5 579.71 222.86 600.48 222.86 643.09 170.13 686.23 222.86 705.67 222.86 687.56 172 596 171.5" style="fill:#FF725E"></polygon><rect x="602.19" y="153.49" width="16.69" height="25.11" style="fill:#FF725E"></rect><rect x="572.97" y="342.64" width="76.81" height="15.78" style="fill:#b5725d"></rect><rect x="608.11" y="299.05" width="20.2" height="42.99" style="fill:#455a64"></rect><path d="M709.93,219.93l-.39,0-1.15,0L704,220l-16.65.08h-.08l-.06-.06L643,166h.4l-.31.39-43.58,54.41,0,.06h-.08l-17-.08-4.55,0-1.18,0a2,2,0,0,1-.4,0l.4,0,1.18,0,4.55,0,17-.08-.14.06c10.45-13.1,26.05-32.68,43.44-54.52l.31-.39.21-.25.2.25,44,54.12-.13-.07,16.65.08,4.44,0,1.15,0A2.87,2.87,0,0,1,709.93,219.93Z" style="fill:#263238"></path><path d="M638.52,171.53c0,.15-9.56.26-21.34.26s-21.33-.11-21.33-.26,9.55-.26,21.33-.26S638.52,171.39,638.52,171.53Z" style="fill:#263238"></path><path d="M630.79,181.45c0,.15-8.52.26-19,.26s-19-.11-19-.26,8.52-.26,19-.26S630.79,181.31,630.79,181.45Z" style="fill:#263238"></path><path d="M622.65,191.64c0,.15-7.38.26-16.48.26s-16.48-.11-16.48-.26,7.38-.26,16.48-.26S622.65,191.5,622.65,191.64Z" style="fill:#263238"></path><path d="M613.7,203.17a4.65,4.65,0,0,1-1.12.11l-3,.08c-2.56,0-6.1.07-10,.07s-7.45,0-10-.07l-3-.08a4.61,4.61,0,0,1-1.11-.11,5,5,0,0,1,1.11-.1l3-.08c2.56-.05,6.1-.08,10-.08s7.45,0,10,.08l3,.08A5.1,5.1,0,0,1,613.7,203.17Z" style="fill:#263238"></path><path d="M604.4,214.82a20.27,20.27,0,0,1-3.29.18c-2,.05-4.85.08-8,.08s-5.92,0-8-.08a20.27,20.27,0,0,1-3.29-.18,20.85,20.85,0,0,1,3.29-.19c2,0,4.85-.07,8-.07s5.91,0,8,.07A20.85,20.85,0,0,1,604.4,214.82Z" style="fill:#263238"></path><path d="M656,181.45c0-.14,8-.26,17.82-.26s17.82.12,17.82.26-8,.26-17.82.26S656,181.6,656,181.45Z" style="fill:#263238"></path><path d="M664.24,191.64c0-.14,6.76-.26,15.1-.26s15.1.12,15.1.26-6.76.26-15.1.26S664.24,191.79,664.24,191.64Z" style="fill:#263238"></path><path d="M673.52,203.17a3.93,3.93,0,0,1,1-.1c.63,0,1.55-.06,2.68-.08,2.26-.05,5.37-.08,8.82-.08s6.57,0,8.82.08c1.13,0,2,0,2.68.08a3.93,3.93,0,0,1,1,.1,3.59,3.59,0,0,1-1,.11c-.63,0-1.55.05-2.68.08-2.25,0-5.37.07-8.82.07s-6.56,0-8.82-.07c-1.13,0-2-.05-2.68-.08A3.59,3.59,0,0,1,673.52,203.17Z" style="fill:#263238"></path><path d="M683.18,214.82a16,16,0,0,1,2.88-.19c1.77,0,4.22-.07,6.93-.07s5.17,0,6.94.07a16,16,0,0,1,2.88.19,15.54,15.54,0,0,1-2.88.18c-1.77.05-4.23.08-6.94.08s-5.16,0-6.93-.08A15.54,15.54,0,0,1,683.18,214.82Z" style="fill:#263238"></path><path d="M719.26,275.32c0,.14-34.1.26-76.14.26s-76.14-.12-76.14-.26,34.08-.26,76.14-.26S719.26,275.18,719.26,275.32Z" style="fill:#263238"></path><path d="M713.79,266c0,.15-31.83.26-71.08.26s-71.09-.11-71.09-.26,31.82-.26,71.09-.26S713.79,265.9,713.79,266Z" style="fill:#263238"></path><path d="M709.79,256.77c0,.14-29.71.26-66.35.26s-66.36-.12-66.36-.26,29.7-.26,66.36-.26S709.79,256.62,709.79,256.77Z" style="fill:#263238"></path><g style="opacity:0.30000000000000004"><path d="M636.21,181.45c-.55.69,44.36,49.7,44.36,49.7h25.2l-.08-6.69h-20l-42.46-51.93Z"></path></g><rect x="633.69" y="234.41" width="19.59" height="3.33" style="fill:#b5725d"></rect><rect x="635.4" y="205.63" width="16.18" height="30.44" style="fill:#b5725d"></rect><rect x="636.98" y="207.12" width="13.02" height="27.32" style="fill:#455a64"></rect><path d="M650,234.33a6.55,6.55,0,0,1-.87,0l-2.58,0-9.63.1h-.19v-.19c0-7.09,0-16.59-.07-27l.26-.26h13.33v.25c0,7.88-.09,14.65-.12,19.5,0,2.34,0,4.22-.07,5.57q0,.9,0,1.47a2.76,2.76,0,0,1,0,.48,4.22,4.22,0,0,1,0-.54c0-.39,0-.89,0-1.52,0-1.36,0-3.26-.06-5.62,0-4.82-.07-11.53-.12-19.34l.24.24H636.92l.26-.26c0,10.43,0,19.93-.07,27l-.19-.19,9.51.1,2.63,0A9.17,9.17,0,0,1,650,234.33Z" style="fill:#263238"></path><rect x="635.95" y="219.94" width="15.26" height="1.48" style="fill:#b5725d"></rect><path d="M651.21,221.42a13.32,13.32,0,0,1-.11-1.48l.11.11c-2.59.09-8.45.15-15.26.15h0l.26-.26h0v1.46l-.26-.26c4.23,0,8,.05,10.75.11l3.26.07a8.74,8.74,0,0,1,1.25.08,8.13,8.13,0,0,1-1.12.07l-3.2.08c-2.74.05-6.6.1-10.94.11h-.26V220h0l.26-.26h0c6.81,0,12.67.06,15.26.15h.11v.1A9.52,9.52,0,0,1,651.21,221.42Z" style="fill:#263238"></path><path d="M652.73,234.41a176.07,176.07,0,0,1-19.13,0,176.07,176.07,0,0,1,19.13,0Z" style="fill:#263238"></path><rect x="659.72" y="322.09" width="18.51" height="3.15" style="fill:#b5725d"></rect><rect x="661.34" y="294.91" width="15.29" height="28.76" style="fill:#b5725d"></rect><rect x="662.83" y="296.32" width="12.31" height="25.81" style="fill:#455a64"></rect><path d="M675.13,322a4.36,4.36,0,0,1-.82,0l-2.44.05-9.1.1h-.19V322c0-6.7,0-15.67-.07-25.53l.26-.26h12.61v.25c0,7.44-.09,13.84-.12,18.43,0,2.21,0,4-.07,5.26,0,.57,0,1,0,1.39a2.29,2.29,0,0,1,0,.45,3.62,3.62,0,0,1,0-.51q0-.56,0-1.44c0-1.29,0-3.08-.07-5.31,0-4.56-.07-10.89-.11-18.27l.24.25H662.77c0,.06.5-.49.26-.26,0,9.86,0,18.83-.07,25.53l-.19-.19,9,.1,2.49.05Z" style="fill:#263238"></path><rect x="661.85" y="308.43" width="14.42" height="1.4" style="fill:#b5725d"></rect><path d="M676.27,309.82a11.68,11.68,0,0,1-.11-1.39l.11.1c-2.44.09-8,.16-14.41.16h0l.26-.26h0v1.37l-.26-.26c4,0,7.55.06,10.15.11l3.09.08a8.66,8.66,0,0,1,1.18.07,4.63,4.63,0,0,1-1,.07l-3,.08c-2.58,0-6.24.11-10.34.11h-.25v-.26c0-.22,0-.45,0-.68v-.69h0l.26-.27h0c6.43,0,12,.07,14.41.16h.11v.11A8,8,0,0,1,676.27,309.82Z" style="fill:#263238"></path><path d="M677.71,322.09a157.29,157.29,0,0,1-18.08,0,157.29,157.29,0,0,1,18.08,0Z" style="fill:#263238"></path><rect x="685.71" y="322.09" width="18.51" height="3.15" style="fill:#b5725d"></rect><rect x="687.33" y="294.91" width="15.29" height="28.76" style="fill:#b5725d"></rect><rect x="688.82" y="296.32" width="12.31" height="25.81" style="fill:#455a64"></rect><path d="M701.12,322a4.24,4.24,0,0,1-.82,0l-2.44.05-9.1.1h-.19V322c0-6.7,0-15.67-.07-25.53-.23.23.32-.32.27-.26h12.6v.25c0,7.44-.09,13.84-.12,18.43,0,2.21,0,4-.06,5.26,0,.57,0,1,0,1.39s0,.46,0,.45,0-.18,0-.51,0-.85,0-1.44c0-1.29,0-3.08-.06-5.31,0-4.56-.07-10.89-.12-18.27l.24.25H688.77c-.06.06.49-.49.25-.26,0,9.86,0,18.83-.06,25.53l-.2-.19,9,.1,2.48.05Z" style="fill:#263238"></path><rect x="687.85" y="308.43" width="14.42" height="1.4" style="fill:#b5725d"></rect><path d="M702.26,309.82a13.42,13.42,0,0,1-.1-1.39l.1.1c-2.44.09-8,.16-14.41.16h0l.26-.26h0v1.37l-.26-.26c4,0,7.55.06,10.15.11l3.08.08a8.66,8.66,0,0,1,1.18.07,4.63,4.63,0,0,1-1,.07l-3,.08c-2.58,0-6.23.11-10.33.11h-.26v-1.63h0l.26-.27h0c6.43,0,12,.07,14.41.16h.11v.11A8,8,0,0,1,702.26,309.82Z" style="fill:#263238"></path><path d="M703.7,322.09a157.29,157.29,0,0,1-18.08,0,157.29,157.29,0,0,1,18.08,0Z" style="fill:#263238"></path><path d="M626.79,342s0-.08,0-.22l0-.61c0-.56,0-1.34,0-2.33,0-2.05,0-5-.07-8.65,0-7.39-.07-17.73-.11-29.74l.24.25H609.36c.52-.52.14-.13.26-.25h0v6c0,2,0,3.91,0,5.83,0,3.82,0,7.51,0,11,0,7,0,13.35-.06,18.69l-.18-.19,12.7.1,3.49.05.92,0a2,2,0,0,1,.32,0l-.28,0-.89,0-3.45,0-12.81.1h-.19V342c0-5.34,0-11.67,0-18.69,0-3.51,0-7.2,0-11V300.51h0c.11-.12-.27.25.26-.27l17.43,0H627v.24c0,12.07-.09,22.48-.11,29.9,0,3.65-.06,6.56-.07,8.6q0,1.45,0,2.28l0,.58C626.8,342,626.8,342,626.79,342Z" style="fill:#263238"></path><path d="M617.31,319.7a12.59,12.59,0,0,1-.06-1.33c0-.91,0-2.11-.07-3.56,0-3-.1-7.23-.12-12.07l.25.25h-6c.52-.52.14-.14.26-.25h0v2.48c0,.82,0,1.63,0,2.42,0,1.58,0,3.1,0,4.54,0,2.85,0,5.4-.06,7.5l-.17-.17,4.34.09c1,0,1.62.06,1.64.08a10.53,10.53,0,0,1-1.53.08l-4.45.1h-.18v-.18c0-2.1,0-4.65-.06-7.5,0-1.44,0-3,0-4.54v-4.9h0c.11-.12-.26.25.26-.27h6.23v.25c0,4.95-.06,9.23-.11,12.24,0,1.43-.06,2.61-.07,3.51A9.52,9.52,0,0,1,617.31,319.7Z" style="fill:#263238"></path><path d="M624.93,319.7a12.59,12.59,0,0,1-.06-1.33c0-.91,0-2.11-.07-3.56,0-3-.1-7.23-.12-12.07l.25.25h-6c.52-.52.14-.14.26-.25h0v2.48c0,.82,0,1.63,0,2.42,0,1.58,0,3.1,0,4.54,0,2.85-.05,5.4-.07,7.5l-.17-.17,4.34.09c1,0,1.62.06,1.64.08a10.53,10.53,0,0,1-1.53.08l-4.45.1h-.17v-.18c0-2.1,0-4.65-.06-7.5,0-1.44,0-3,0-4.54v-4.9h0c.11-.12-.26.25.26-.27h6.24v.25c0,4.95-.07,9.23-.12,12.24,0,1.43-.05,2.61-.07,3.51A7.54,7.54,0,0,1,624.93,319.7Z" style="fill:#263238"></path><path d="M617.31,339.83a12.93,12.93,0,0,1-.06-1.34c0-.91,0-2.1-.07-3.56,0-3-.1-7.22-.12-12.06l.25.25h-6l.26-.26h0v2.48c0,.82,0,1.63,0,2.42,0,1.58,0,3.1,0,4.55,0,2.85,0,5.39-.06,7.5l-.17-.18,4.34.1a14.18,14.18,0,0,1,1.64.08,15.16,15.16,0,0,1-1.53.07l-4.45.1h-.18v-.17c0-2.11,0-4.65-.06-7.5,0-1.45,0-3,0-4.55v-4.9h0c.11-.12-.26.26.26-.26h6.23v.25c0,4.94-.06,9.22-.11,12.23,0,1.44-.06,2.61-.07,3.51A9.83,9.83,0,0,1,617.31,339.83Z" style="fill:#263238"></path><path d="M624.93,339.83a12.93,12.93,0,0,1-.06-1.34c0-.91,0-2.1-.07-3.56,0-3-.1-7.22-.12-12.06l.25.25h-6l.26-.26h0v2.48c0,.82,0,1.63,0,2.42,0,1.58,0,3.1,0,4.55,0,2.85-.05,5.39-.07,7.5l-.17-.18,4.34.1a14.18,14.18,0,0,1,1.64.08,15.16,15.16,0,0,1-1.53.07L619,340h-.17v-.17c0-2.11,0-4.65-.06-7.5,0-1.45,0-3,0-4.55v-4.9h0c.11-.12-.26.26.26-.26h6.24v.25c0,4.94-.07,9.22-.12,12.23,0,1.44-.05,2.61-.07,3.51A7.78,7.78,0,0,1,624.93,339.83Z" style="fill:#263238"></path><rect x="613.67" y="292.1" width="9.85" height="4.22" style="fill:#FF725E"></rect><g style="opacity:0.30000000000000004"><polygon points="576.72 288.79 576.72 284.38 712.17 284.38 712.17 289.96 576.72 288.79"></polygon></g><rect x="572.43" y="341.73" width="144.6" height="3.98" style="fill:#b5725d"></rect><path d="M717,345.71c0,.14-32.42.26-72.41.26s-72.41-.12-72.41-.26,32.41-.26,72.41-.26S717,345.56,717,345.71Z" style="fill:#263238"></path><path d="M634.12,358.42a8,8,0,0,1-.14-1.73c0-1.1-.08-2.66-.1-4.49V352h.24l4.06,0,3.78,0-.24.24c0-1.9,0-3.52.1-4.67a8.83,8.83,0,0,1,.14-1.82,7.6,7.6,0,0,1,.15,1.82c0,1.15.08,2.77.1,4.67v.24h-4l-4.06,0,.24-.24c0,1.83-.05,3.39-.09,4.49A6.91,6.91,0,0,1,634.12,358.42Z" style="fill:#263238"></path><path d="M572.9,352.35c0-.15,13.8-.26,30.82-.26s30.83.11,30.83.26-13.8.26-30.83.26S572.9,352.49,572.9,352.35Z" style="fill:#263238"></path><path d="M712.39,352.35c0,.14-14.07.26-31.41.26s-31.43-.12-31.43-.26,14.07-.26,31.43-.26S712.39,352.2,712.39,352.35Z" style="fill:#e0e0e0"></path><g style="opacity:0.30000000000000004"><path d="M647.85,171.53l43.76,48.4H687.3S648,171,647.85,171.53Z"></path></g></g><g id="freepik--Straw--inject-77"><path d="M96.66,406.29c-.09,0-.85-1.45-2.37-3.69a42.92,42.92,0,0,0-15.56-13.92c-2.39-1.26-4-1.86-3.93-1.95a5.35,5.35,0,0,1,1.13.35,30.44,30.44,0,0,1,3,1.27,39,39,0,0,1,15.7,14,31.67,31.67,0,0,1,1.59,2.8A5.56,5.56,0,0,1,96.66,406.29Z" style="fill:#FF725E"></path><path d="M94.6,412.14a56.37,56.37,0,0,0-6.73-4,53.64,53.64,0,0,0-7.43-2.51,7.72,7.72,0,0,1,2.31.27,24.67,24.67,0,0,1,5.33,1.76,25.13,25.13,0,0,1,4.81,2.91A8.08,8.08,0,0,1,94.6,412.14Z" style="fill:#FF725E"></path><path d="M190.68,370.55c0,.09-1.58.89-3.94,2.57a38.45,38.45,0,0,0-3.92,3.23,39.71,39.71,0,0,0-4.15,4.62,40.16,40.16,0,0,0-3.33,5.24,36.83,36.83,0,0,0-2.05,4.65c-1,2.73-1.31,4.5-1.41,4.48a5.55,5.55,0,0,1,.18-1.26,14,14,0,0,1,.33-1.45c.15-.56.3-1.2.55-1.89a34.09,34.09,0,0,1,2-4.75,38.41,38.41,0,0,1,3.34-5.34,38.82,38.82,0,0,1,4.24-4.65,34.19,34.19,0,0,1,4-3.18c.6-.43,1.18-.74,1.68-1a11.16,11.16,0,0,1,1.31-.71A5.59,5.59,0,0,1,190.68,370.55Z" style="fill:#FF725E"></path><path d="M162.17,373a15.54,15.54,0,0,1,.14,2.62c0,1.61.1,3.83.25,6.28s.34,4.67.49,6.28a15.52,15.52,0,0,1,.17,2.61,11.74,11.74,0,0,1-.54-2.57c-.24-1.6-.49-3.82-.64-6.29s-.15-4.7-.1-6.32A11.25,11.25,0,0,1,162.17,373Z" style="fill:#FF725E"></path><path d="M130.42,384.26h27.33a35.47,35.47,0,0,1,35.47,35.47v0a35.47,35.47,0,0,1-35.47,35.47H130.42a10.11,10.11,0,0,1-10.11-10.11V394.36a10.11,10.11,0,0,1,10.11-10.11Z" style="fill:#FF725E"></path><g style="opacity:0.30000000000000004"><path d="M130.42,384.26h27.33a35.47,35.47,0,0,1,35.47,35.47v0a35.47,35.47,0,0,1-35.47,35.47H130.42a10.11,10.11,0,0,1-10.11-10.11V394.36a10.11,10.11,0,0,1,10.11-10.11Z"></path></g><circle cx="121.2" cy="419.72" r="35.47" transform="translate(-261.29 208.63) rotate(-45)" style="fill:#FF725E"></circle><path d="M149.72,419.72s0-.15-.05-.46,0-.78-.09-1.35c0-.3,0-.63-.06-1s-.12-.76-.19-1.19a21.34,21.34,0,0,0-.6-2.94,27.16,27.16,0,0,0-3.16-7.55,28.32,28.32,0,0,0-34-12.08,30,30,0,0,0-3.69,1.63c-.6.32-1.17.7-1.76,1.05A14.88,14.88,0,0,0,104.4,397a32.66,32.66,0,0,0-3.2,2.72A33.57,33.57,0,0,0,98.43,403a27.21,27.21,0,0,0-4,7.79,28.07,28.07,0,0,0,0,17.84,27.23,27.23,0,0,0,4.05,7.79,30.19,30.19,0,0,0,2.77,3.28,31.64,31.64,0,0,0,3.2,2.73,16.26,16.26,0,0,0,1.71,1.18c.59.35,1.16.72,1.76,1.05a30,30,0,0,0,3.69,1.62,28.37,28.37,0,0,0,34-12.08,27.16,27.16,0,0,0,3.16-7.55,21.05,21.05,0,0,0,.6-2.94c.07-.43.15-.82.19-1.19l.06-1c0-.58.07-1,.09-1.36s.05-.46.05-.46,0,.16,0,.46,0,.78,0,1.36c0,.3,0,.64,0,1s-.11.76-.16,1.19a20.81,20.81,0,0,1-.56,3,27,27,0,0,1-3.11,7.65A28.74,28.74,0,0,1,126.5,448a27.06,27.06,0,0,1-3.63.43c-.62,0-1.25.08-1.88.08l-1.9-.1a11.37,11.37,0,0,1-1.92-.2c-.64-.11-1.29-.18-1.93-.31a29.47,29.47,0,0,1-3.84-1.12,28.93,28.93,0,0,1-3.76-1.64c-.61-.33-1.19-.71-1.79-1.07a13.72,13.72,0,0,1-1.74-1.19,26.27,26.27,0,0,1-6.1-6.11,27.94,27.94,0,0,1-4.12-7.93,30.66,30.66,0,0,1-1.48-9.08,30.35,30.35,0,0,1,1.49-9.08A27.57,27.57,0,0,1,98,402.71a31.19,31.19,0,0,1,2.82-3.33,31.53,31.53,0,0,1,3.27-2.77,13.79,13.79,0,0,1,1.74-1.2c.6-.35,1.18-.74,1.79-1.06a29,29,0,0,1,3.76-1.65,29.73,29.73,0,0,1,3.83-1.11c.65-.14,1.3-.21,1.94-.31a12.53,12.53,0,0,1,1.92-.21L121,391c.63,0,1.26,0,1.88.08a25.53,25.53,0,0,1,3.63.43,28.69,28.69,0,0,1,19.32,13.59,27.09,27.09,0,0,1,3.11,7.65,21.07,21.07,0,0,1,.56,3c0,.43.12.83.16,1.2s0,.7,0,1c0,.58,0,1,0,1.36S149.72,419.72,149.72,419.72Z" style="fill:#263238"></path><path d="M142.67,420.25a1.41,1.41,0,0,1,0-.35c0-.25,0-.59-.08-1,0-.23,0-.48,0-.75s-.09-.57-.14-.9a15.21,15.21,0,0,0-.45-2.21,20.93,20.93,0,0,0-2.39-5.67A21.27,21.27,0,0,0,114,400.31a23.19,23.19,0,0,0-2.76,1.22,21.65,21.65,0,0,0-2.6,1.67,24.63,24.63,0,0,0-2.41,2.05,26,26,0,0,0-2.08,2.46,20.7,20.7,0,0,0-3,5.85,21.08,21.08,0,0,0,0,13.38,20.32,20.32,0,0,0,3,5.85,22.34,22.34,0,0,0,2.08,2.46,24.32,24.32,0,0,0,2.4,2.05A21.33,21.33,0,0,0,111.2,439a21.68,21.68,0,0,0,2.76,1.22,21.32,21.32,0,0,0,25.55-9.05,20.93,20.93,0,0,0,2.39-5.67,14.7,14.7,0,0,0,.45-2.21c.05-.32.11-.62.14-.89s0-.53,0-.75c0-.43.06-.76.08-1a1.41,1.41,0,0,1,0-.35,1.88,1.88,0,0,1,0,.35l0,1c0,.23,0,.48,0,.76s-.07.58-.11.9a15.11,15.11,0,0,1-.42,2.24,20.07,20.07,0,0,1-2.33,5.77,21.58,21.58,0,0,1-26,9.35A22.71,22.71,0,0,1,111,439.4a21.48,21.48,0,0,1-2.67-1.7,24.38,24.38,0,0,1-2.47-2.09,24.65,24.65,0,0,1-2.13-2.52,20.75,20.75,0,0,1-3.11-6,21.39,21.39,0,0,1,0-13.72,20.75,20.75,0,0,1,3.11-6,23.5,23.5,0,0,1,2.13-2.51,24.18,24.18,0,0,1,2.47-2.09A21.56,21.56,0,0,1,111,401.1a22.71,22.71,0,0,1,2.83-1.24,21.72,21.72,0,0,1,11.4-.91,21.65,21.65,0,0,1,14.56,10.26,20.3,20.3,0,0,1,2.33,5.78,14.76,14.76,0,0,1,.42,2.23c0,.33.09.63.11.91s0,.52,0,.75l0,1A1.88,1.88,0,0,1,142.67,420.25Z" style="fill:#263238"></path><path d="M134.75,420.25a22,22,0,0,0-.52-3.28,13.51,13.51,0,0,0-4.94-7.35,13.28,13.28,0,0,0-5.63-2.47,13.47,13.47,0,0,0-7,.59,12.7,12.7,0,0,0-3.37,1.82,12.38,12.38,0,0,0-2.81,2.83,13.26,13.26,0,0,0,0,15.72,13.35,13.35,0,0,0,6.18,4.65,13.44,13.44,0,0,0,17.57-9.22,22,22,0,0,0,.52-3.29,4.13,4.13,0,0,1,0,.87,6.05,6.05,0,0,1-.08,1.05,8.89,8.89,0,0,1-.25,1.42,13.66,13.66,0,0,1-17.93,9.62,12.73,12.73,0,0,1-3.5-1.87,13.09,13.09,0,0,1-2.93-2.92,13.74,13.74,0,0,1,0-16.33,13.81,13.81,0,0,1,6.43-4.8,13.83,13.83,0,0,1,7.24-.57,13.67,13.67,0,0,1,10.69,10.2,8.6,8.6,0,0,1,.25,1.41,6.19,6.19,0,0,1,.08,1.05A4.13,4.13,0,0,1,134.75,420.25Z" style="fill:#263238"></path><path d="M171.84,406.65c-.14,0-.8-1.9-2.06-4.06s-2.61-3.71-2.49-3.82a10.7,10.7,0,0,1,2.94,3.55A10.41,10.41,0,0,1,171.84,406.65Z" style="fill:#263238"></path><path d="M177.42,410.71c-.16,0-.94-2.72-2.57-5.83s-3.44-5.34-3.32-5.44a5.88,5.88,0,0,1,1.3,1.37,24.62,24.62,0,0,1,4.21,8.05A5.89,5.89,0,0,1,177.42,410.71Z" style="fill:#263238"></path><path d="M176.74,400.66a13.78,13.78,0,0,1-1.73-2.13,14.19,14.19,0,0,1-1.7-2.15c.09-.11,1.14.61,2.11,1.83A5.28,5.28,0,0,1,176.74,400.66Z" style="fill:#263238"></path><path d="M170.53,435.76a33.2,33.2,0,0,1,1.46-3.18,32.22,32.22,0,0,1,1.33-3.24,10.58,10.58,0,0,1-2.79,6.42Z" style="fill:#263238"></path><path d="M172.67,435.76c-.11-.11,1-1.2,1.79-2.86s1-3.15,1.21-3.13a7.11,7.11,0,0,1-3,6Z" style="fill:#263238"></path><path d="M140.06,378.82a65.23,65.23,0,0,1-2.63,11.38,33.8,33.8,0,0,1,1.06-5.75A32.37,32.37,0,0,1,140.06,378.82Z" style="fill:#FF725E"></path><path d="M133.05,379.65a30.33,30.33,0,0,1,0,10.75,49.33,49.33,0,0,1,0-5.37A49.56,49.56,0,0,1,133.05,379.65Z" style="fill:#FF725E"></path><path d="M167.35,433.62a11.79,11.79,0,0,1-2.66-2.19,11.6,11.6,0,0,1-2.3-2.56,11.16,11.16,0,0,1,2.66,2.19A11.6,11.6,0,0,1,167.35,433.62Z" style="fill:#FF725E"></path><path d="M169.24,429.61a10,10,0,0,1-3.16-.72,10.29,10.29,0,0,1-3-1.22,19.94,19.94,0,0,1,6.17,1.94Z" style="fill:#FF725E"></path><path d="M198.76,410.39a18.63,18.63,0,0,1-3.93,2,18.83,18.83,0,0,1-4.13,1.52,18.63,18.63,0,0,1,3.93-2A18.83,18.83,0,0,1,198.76,410.39Z" style="fill:#FF725E"></path><path d="M200.65,419.34c0,.15-2.33-.23-5.17-.46s-5.16-.22-5.17-.37a16.88,16.88,0,0,1,5.21-.14A16.69,16.69,0,0,1,200.65,419.34Z" style="fill:#FF725E"></path><path d="M171.53,408.61c-.08,0-.85-1.45-2.37-3.69A42.92,42.92,0,0,0,153.6,391c-2.39-1.26-4-1.86-3.93-1.95a5.14,5.14,0,0,1,1.14.35,30.46,30.46,0,0,1,3,1.27,38.85,38.85,0,0,1,15.7,14.05,27.23,27.23,0,0,1,1.59,2.8A4.87,4.87,0,0,1,171.53,408.61Z" style="fill:#FF725E"></path><path d="M265.55,372.87c.05.09-1.57.89-3.93,2.57a37.41,37.41,0,0,0-3.93,3.23,39.71,39.71,0,0,0-4.15,4.62,42.39,42.39,0,0,0-3.33,5.24,38.14,38.14,0,0,0-2,4.65c-1,2.72-1.32,4.5-1.42,4.48a5.55,5.55,0,0,1,.18-1.26,14,14,0,0,1,.33-1.45c.16-.56.31-1.2.56-1.89a32.45,32.45,0,0,1,2-4.75,35,35,0,0,1,7.58-10,32.63,32.63,0,0,1,4-3.18c.59-.43,1.18-.74,1.67-1a12,12,0,0,1,1.31-.71A5.59,5.59,0,0,1,265.55,372.87Z" style="fill:#FF725E"></path><path d="M237,375.3a14.32,14.32,0,0,1,.14,2.62c0,1.61.11,3.83.25,6.28s.35,4.67.5,6.28a14.74,14.74,0,0,1,.16,2.61,11.44,11.44,0,0,1-.53-2.57c-.24-1.6-.5-3.82-.65-6.29s-.15-4.7-.09-6.32A11.68,11.68,0,0,1,237,375.3Z" style="fill:#FF725E"></path><path d="M198.15,386.58h34.47A35.47,35.47,0,0,1,268.09,422v0a35.47,35.47,0,0,1-35.47,35.47H198.15a3,3,0,0,1-3-3v-65a3,3,0,0,1,3-3Z" style="fill:#FF725E"></path><g style="opacity:0.30000000000000004"><path d="M198.15,386.58h34.47A35.47,35.47,0,0,1,268.09,422v0a35.47,35.47,0,0,1-35.47,35.47H198.15a3,3,0,0,1-3-3v-65a3,3,0,0,1,3-3Z"></path></g><circle cx="196.07" cy="422.04" r="35.47" transform="translate(-154.65 116.17) rotate(-23.99)" style="fill:#FF725E"></circle><path d="M224.6,422a3.92,3.92,0,0,1,0-.46c0-.33-.06-.78-.1-1.35,0-.3,0-.63-.06-1s-.12-.76-.18-1.19a21.05,21.05,0,0,0-.6-2.94,27.22,27.22,0,0,0-3.17-7.55,28.31,28.31,0,0,0-34-12.08,29.9,29.9,0,0,0-3.68,1.63c-.6.32-1.17.7-1.76,1a13.32,13.32,0,0,0-1.71,1.18,31.44,31.44,0,0,0-3.21,2.72,33.57,33.57,0,0,0-2.77,3.28,27.46,27.46,0,0,0-4,7.79,28,28,0,0,0,0,17.84,27.46,27.46,0,0,0,4,7.79,31.37,31.37,0,0,0,2.77,3.28,31.74,31.74,0,0,0,3.21,2.73,13.87,13.87,0,0,0,1.7,1.17c.6.36,1.17.73,1.77,1.06a29.83,29.83,0,0,0,3.68,1.62,28.36,28.36,0,0,0,14.87,1.24,28.46,28.46,0,0,0,19.14-13.32,27.22,27.22,0,0,0,3.17-7.55,21.05,21.05,0,0,0,.6-2.94c.06-.43.14-.82.18-1.19l.06-1c0-.58.08-1,.1-1.36a4.35,4.35,0,0,1,0-.46s0,.16,0,.46,0,.78,0,1.36c0,.3,0,.64,0,1s-.1.76-.16,1.19a19.5,19.5,0,0,1-.56,3,26.68,26.68,0,0,1-3.11,7.65,28.75,28.75,0,0,1-19.31,13.6,27,27,0,0,1-3.64.43c-.62,0-1.24.08-1.87.08l-1.9-.1a11.27,11.27,0,0,1-1.92-.2c-.64-.11-1.3-.18-1.94-.31a29.93,29.93,0,0,1-3.84-1.12,29.53,29.53,0,0,1-3.76-1.64c-.6-.33-1.19-.71-1.79-1.07a15.31,15.31,0,0,1-1.74-1.19,34,34,0,0,1-3.27-2.77,32.52,32.52,0,0,1-2.82-3.34,27.69,27.69,0,0,1-4.12-7.93,28.41,28.41,0,0,1,0-18.16,28.07,28.07,0,0,1,4.12-7.93,32.48,32.48,0,0,1,2.83-3.33,31.43,31.43,0,0,1,3.26-2.77,15.4,15.4,0,0,1,1.74-1.2c.6-.35,1.19-.74,1.8-1.06a28.87,28.87,0,0,1,3.75-1.65,29.87,29.87,0,0,1,3.84-1.11c.64-.14,1.29-.21,1.94-.31a12.39,12.39,0,0,1,1.92-.21l1.9-.09c.63,0,1.25.05,1.87.08a25.49,25.49,0,0,1,3.64.43,28.7,28.7,0,0,1,19.31,13.59,27.09,27.09,0,0,1,3.11,7.65,19.73,19.73,0,0,1,.56,3c.06.43.13.83.16,1.2s0,.7,0,1c0,.58,0,1,0,1.36S224.6,422,224.6,422Z" style="fill:#263238"></path><path d="M217.54,422.57a2,2,0,0,1,0-.35c0-.25-.05-.59-.08-1,0-.23,0-.48,0-.75s-.09-.57-.14-.9a16.86,16.86,0,0,0-.46-2.21,20.31,20.31,0,0,0-2.39-5.67,21.41,21.41,0,0,0-14.39-10,21.42,21.42,0,0,0-11.15.94,23.32,23.32,0,0,0-2.77,1.22,22.47,22.47,0,0,0-2.6,1.67,25.86,25.86,0,0,0-2.41,2.05A24.48,24.48,0,0,0,179,410a20.47,20.47,0,0,0-3,5.85,21.08,21.08,0,0,0,0,13.38,20.57,20.57,0,0,0,3,5.85,24.78,24.78,0,0,0,2.08,2.46,24.42,24.42,0,0,0,2.41,2.05,21.22,21.22,0,0,0,2.6,1.67,21.8,21.8,0,0,0,2.77,1.22,21.32,21.32,0,0,0,25.54-9.05,20.31,20.31,0,0,0,2.39-5.67,16.22,16.22,0,0,0,.46-2.21c.05-.32.11-.62.14-.89s0-.53,0-.75c0-.43.06-.76.08-1a2,2,0,0,1,0-.35,1.88,1.88,0,0,1,0,.35q0,.39,0,1c0,.23,0,.48,0,.76s-.08.58-.12.9a15,15,0,0,1-.41,2.24,20.42,20.42,0,0,1-2.34,5.77,21.65,21.65,0,0,1-14.56,10.26,21.59,21.59,0,0,1-11.39-.91,22.21,22.21,0,0,1-2.84-1.24,23.07,23.07,0,0,1-2.67-1.7,25.42,25.42,0,0,1-2.46-2.09,24.74,24.74,0,0,1-2.14-2.52,21.26,21.26,0,0,1-3.11-6,21.57,21.57,0,0,1,0-13.72,21.26,21.26,0,0,1,3.11-6,23.58,23.58,0,0,1,2.14-2.51,25.53,25.53,0,0,1,2.46-2.1,24.49,24.49,0,0,1,2.67-1.7,22.21,22.21,0,0,1,2.84-1.24,21.69,21.69,0,0,1,11.39-.91,21.65,21.65,0,0,1,14.56,10.26,20.35,20.35,0,0,1,2.34,5.78,16,16,0,0,1,.41,2.23c0,.33.1.63.12.91s0,.52,0,.75l0,1A1.88,1.88,0,0,1,217.54,422.57Z" style="fill:#263238"></path><path d="M209.63,422.57a23.86,23.86,0,0,0-.52-3.28,13.54,13.54,0,0,0-5-7.35,13.18,13.18,0,0,0-5.63-2.47,13.47,13.47,0,0,0-7,.59,13.4,13.4,0,0,0-6.17,4.65,13.22,13.22,0,0,0,0,15.72,12.38,12.38,0,0,0,2.81,2.83,12.22,12.22,0,0,0,3.36,1.82,13.31,13.31,0,0,0,12.63-1.88,13.52,13.52,0,0,0,5-7.34,23.85,23.85,0,0,0,.52-3.29,5.25,5.25,0,0,1,0,.87,7.34,7.34,0,0,1-.08,1.05,10.34,10.34,0,0,1-.26,1.42,13.66,13.66,0,0,1-17.93,9.62,12.88,12.88,0,0,1-3.5-1.87,13.09,13.09,0,0,1-2.93-2.92,13.72,13.72,0,0,1,0-16.33,12.69,12.69,0,0,1,2.92-2.93,12.88,12.88,0,0,1,3.5-1.87,13.68,13.68,0,0,1,13,2,13.53,13.53,0,0,1,4.91,7.59,10,10,0,0,1,.26,1.41,7.44,7.44,0,0,1,.08,1.05A5.25,5.25,0,0,1,209.63,422.57Z" style="fill:#263238"></path><path d="M246.72,409c-.15,0-.81-1.9-2.07-4.06s-2.6-3.71-2.49-3.82a13.9,13.9,0,0,1,4.56,7.88Z" style="fill:#263238"></path><path d="M252.29,413c-.15,0-.93-2.72-2.57-5.83s-3.44-5.34-3.31-5.44.57.46,1.3,1.37a24.85,24.85,0,0,1,4.2,8.05A5.89,5.89,0,0,1,252.29,413Z" style="fill:#263238"></path><path d="M251.61,403a13.41,13.41,0,0,1-1.72-2.13c-.93-1.17-1.8-2-1.7-2.15a5.16,5.16,0,0,1,2.1,1.83A5.07,5.07,0,0,1,251.61,403Z" style="fill:#263238"></path><path d="M245.4,438.08a35,35,0,0,1,1.47-3.18,32.22,32.22,0,0,1,1.33-3.24,7.65,7.65,0,0,1-.85,3.45A7.57,7.57,0,0,1,245.4,438.08Z" style="fill:#263238"></path><path d="M247.55,438.08c-.11-.11,1-1.2,1.78-2.86s1.06-3.15,1.21-3.13a5.44,5.44,0,0,1-.74,3.37A5.58,5.58,0,0,1,247.55,438.08Z" style="fill:#263238"></path><path d="M214.93,381.14a32.49,32.49,0,0,1-1.06,5.75,32.92,32.92,0,0,1-1.56,5.63,66.43,66.43,0,0,1,2.62-11.38Z" style="fill:#FF725E"></path><path d="M207.93,382a30.33,30.33,0,0,1,0,10.75,46.55,46.55,0,0,1,0-5.37A46.68,46.68,0,0,1,207.93,382Z" style="fill:#FF725E"></path><path d="M242.22,435.94a11.79,11.79,0,0,1-2.66-2.19,11.6,11.6,0,0,1-2.3-2.56,11.26,11.26,0,0,1,2.66,2.18A11.77,11.77,0,0,1,242.22,435.94Z" style="fill:#FF725E"></path><path d="M244.12,431.93a10.07,10.07,0,0,1-3.17-.72,10.44,10.44,0,0,1-3-1.22,10.35,10.35,0,0,1,3.17.72A10.62,10.62,0,0,1,244.12,431.93Z" style="fill:#FF725E"></path><path d="M273.63,412.71a18.7,18.7,0,0,1-3.92,2,19,19,0,0,1-4.14,1.52,19,19,0,0,1,3.93-2A19.23,19.23,0,0,1,273.63,412.71Z" style="fill:#FF725E"></path><path d="M275.52,421.66c0,.15-2.32-.23-5.16-.46s-5.17-.22-5.18-.37a16.93,16.93,0,0,1,5.22-.14A16.67,16.67,0,0,1,275.52,421.66Z" style="fill:#FF725E"></path></g></svg>
